<mxfile host="app.diagrams.net" modified="2022-07-18T11:49:00.710Z" agent="5.0 (Windows NT 10.0; Win64; x64) AppleWebKit/537.36 (KHTML, like Gecko) Chrome/103.0.0.0 Safari/537.36" etag="aaQZsgDEMGfG12SwhPkg" version="20.0.4" type="github">
  <diagram name="Page-1" id="e7e014a7-5840-1c2e-5031-d8a46d1fe8dd">
    <mxGraphModel dx="1237" dy="663" grid="1" gridSize="10" guides="1" tooltips="1" connect="1" arrows="1" fold="1" page="1" pageScale="1" pageWidth="1169" pageHeight="826" background="none" math="0" shadow="0">
      <root>
        <mxCell id="0" />
        <mxCell id="1" parent="0" />
        <mxCell id="2" value="Customer" style="swimlane;whiteSpace=wrap" parent="1" vertex="1">
          <mxGeometry x="164.5" y="128" width="280" height="570" as="geometry" />
        </mxCell>
        <mxCell id="-y_1eh64MCwN-i-FL7D--69" style="edgeStyle=orthogonalEdgeStyle;rounded=0;orthogonalLoop=1;jettySize=auto;html=1;entryX=0.498;entryY=-0.02;entryDx=0;entryDy=0;entryPerimeter=0;" edge="1" parent="2" source="5" target="7">
          <mxGeometry relative="1" as="geometry" />
        </mxCell>
        <mxCell id="5" value="" style="ellipse;shape=startState;fillColor=#000000;strokeColor=#ff0000;" parent="2" vertex="1">
          <mxGeometry x="100" y="40" width="30" height="30" as="geometry" />
        </mxCell>
        <mxCell id="7" value="Выбор товара" style="" parent="2" vertex="1">
          <mxGeometry x="60" y="110" width="110" height="50" as="geometry" />
        </mxCell>
        <mxCell id="8" value="Создание заказа" style="" parent="2" vertex="1">
          <mxGeometry x="60" y="192" width="110" height="50" as="geometry" />
        </mxCell>
        <mxCell id="38" value="" style="ellipse;shape=endState;fillColor=#000000;strokeColor=#ff0000" parent="2" vertex="1">
          <mxGeometry x="100" y="512" width="30" height="30" as="geometry" />
        </mxCell>
        <mxCell id="-y_1eh64MCwN-i-FL7D--64" style="edgeStyle=orthogonalEdgeStyle;rounded=0;orthogonalLoop=1;jettySize=auto;html=1;entryX=0.5;entryY=0;entryDx=0;entryDy=0;exitX=0.489;exitY=1.011;exitDx=0;exitDy=0;exitPerimeter=0;" edge="1" parent="2" source="-y_1eh64MCwN-i-FL7D--58" target="-y_1eh64MCwN-i-FL7D--61">
          <mxGeometry relative="1" as="geometry">
            <mxPoint x="115.5" y="372" as="sourcePoint" />
          </mxGeometry>
        </mxCell>
        <mxCell id="-y_1eh64MCwN-i-FL7D--58" value="Оплата &#xa;счета" style="" vertex="1" parent="2">
          <mxGeometry x="60" y="312" width="110" height="50" as="geometry" />
        </mxCell>
        <mxCell id="-y_1eh64MCwN-i-FL7D--76" style="edgeStyle=orthogonalEdgeStyle;rounded=0;orthogonalLoop=1;jettySize=auto;html=1;entryX=0.5;entryY=0;entryDx=0;entryDy=0;entryPerimeter=0;" edge="1" parent="2" source="-y_1eh64MCwN-i-FL7D--61" target="-y_1eh64MCwN-i-FL7D--75">
          <mxGeometry relative="1" as="geometry" />
        </mxCell>
        <mxCell id="-y_1eh64MCwN-i-FL7D--88" value="Нет" style="edgeLabel;html=1;align=center;verticalAlign=middle;resizable=0;points=[];" vertex="1" connectable="0" parent="-y_1eh64MCwN-i-FL7D--76">
          <mxGeometry x="-0.6925" relative="1" as="geometry">
            <mxPoint as="offset" />
          </mxGeometry>
        </mxCell>
        <mxCell id="-y_1eh64MCwN-i-FL7D--61" value="Счёт&lt;br&gt;оплачен?" style="rhombus;whiteSpace=wrap;html=1;" vertex="1" parent="2">
          <mxGeometry x="60" y="372" width="110" height="48" as="geometry" />
        </mxCell>
        <mxCell id="-y_1eh64MCwN-i-FL7D--78" style="edgeStyle=orthogonalEdgeStyle;rounded=0;orthogonalLoop=1;jettySize=auto;html=1;entryX=0.5;entryY=0;entryDx=0;entryDy=0;" edge="1" parent="2" source="-y_1eh64MCwN-i-FL7D--75" target="38">
          <mxGeometry relative="1" as="geometry" />
        </mxCell>
        <mxCell id="-y_1eh64MCwN-i-FL7D--75" value="Отмена заказа" style="" vertex="1" parent="2">
          <mxGeometry x="52.5" y="452" width="125" height="50" as="geometry" />
        </mxCell>
        <mxCell id="4" value="Accountant" style="swimlane;whiteSpace=wrap" parent="1" vertex="1">
          <mxGeometry x="445" y="128" width="280" height="570" as="geometry" />
        </mxCell>
        <mxCell id="10" value="Оформление &#xa;счета" style="" parent="4" vertex="1">
          <mxGeometry x="75" y="260" width="110" height="50" as="geometry" />
        </mxCell>
        <mxCell id="-y_1eh64MCwN-i-FL7D--72" value="Выписка накладной" style="" vertex="1" parent="4">
          <mxGeometry x="77" y="382" width="125" height="50" as="geometry" />
        </mxCell>
        <mxCell id="-y_1eh64MCwN-i-FL7D--42" value="Storage" style="swimlane;whiteSpace=wrap" vertex="1" parent="1">
          <mxGeometry x="725" y="128" width="280" height="570" as="geometry" />
        </mxCell>
        <mxCell id="-y_1eh64MCwN-i-FL7D--68" style="edgeStyle=orthogonalEdgeStyle;rounded=0;orthogonalLoop=1;jettySize=auto;html=1;entryX=0.502;entryY=-0.023;entryDx=0;entryDy=0;entryPerimeter=0;" edge="1" parent="-y_1eh64MCwN-i-FL7D--42" source="-y_1eh64MCwN-i-FL7D--48" target="-y_1eh64MCwN-i-FL7D--50">
          <mxGeometry relative="1" as="geometry" />
        </mxCell>
        <mxCell id="-y_1eh64MCwN-i-FL7D--48" value="Проверка наличия &#xa;товара" style="" vertex="1" parent="-y_1eh64MCwN-i-FL7D--42">
          <mxGeometry x="85" y="110" width="110" height="50" as="geometry" />
        </mxCell>
        <mxCell id="-y_1eh64MCwN-i-FL7D--50" value="Поставка&lt;br&gt;возможна?" style="rhombus;whiteSpace=wrap;html=1;" vertex="1" parent="-y_1eh64MCwN-i-FL7D--42">
          <mxGeometry x="76.25" y="192" width="127.5" height="58" as="geometry" />
        </mxCell>
        <mxCell id="-y_1eh64MCwN-i-FL7D--83" style="edgeStyle=orthogonalEdgeStyle;rounded=0;orthogonalLoop=1;jettySize=auto;html=1;entryX=0.5;entryY=0;entryDx=0;entryDy=0;entryPerimeter=0;" edge="1" parent="-y_1eh64MCwN-i-FL7D--42" source="-y_1eh64MCwN-i-FL7D--79" target="-y_1eh64MCwN-i-FL7D--80">
          <mxGeometry relative="1" as="geometry" />
        </mxCell>
        <mxCell id="-y_1eh64MCwN-i-FL7D--79" value="Сборка" style="" vertex="1" parent="-y_1eh64MCwN-i-FL7D--42">
          <mxGeometry x="78.75" y="382" width="125" height="50" as="geometry" />
        </mxCell>
        <mxCell id="-y_1eh64MCwN-i-FL7D--80" value="Отгрузка товара" style="" vertex="1" parent="-y_1eh64MCwN-i-FL7D--42">
          <mxGeometry x="78.75" y="452" width="125" height="50" as="geometry" />
        </mxCell>
        <mxCell id="-y_1eh64MCwN-i-FL7D--65" style="edgeStyle=orthogonalEdgeStyle;rounded=0;orthogonalLoop=1;jettySize=auto;html=1;exitX=0.991;exitY=0.43;exitDx=0;exitDy=0;exitPerimeter=0;" edge="1" parent="1" source="7">
          <mxGeometry relative="1" as="geometry">
            <mxPoint x="340" y="262" as="sourcePoint" />
            <mxPoint x="810" y="260" as="targetPoint" />
            <Array as="points">
              <mxPoint x="572" y="260" />
              <mxPoint x="810" y="260" />
            </Array>
          </mxGeometry>
        </mxCell>
        <mxCell id="-y_1eh64MCwN-i-FL7D--66" style="edgeStyle=orthogonalEdgeStyle;rounded=0;orthogonalLoop=1;jettySize=auto;html=1;entryX=0.991;entryY=0.597;entryDx=0;entryDy=0;entryPerimeter=0;" edge="1" parent="1" source="-y_1eh64MCwN-i-FL7D--50" target="8">
          <mxGeometry relative="1" as="geometry" />
        </mxCell>
        <mxCell id="-y_1eh64MCwN-i-FL7D--70" style="edgeStyle=orthogonalEdgeStyle;rounded=0;orthogonalLoop=1;jettySize=auto;html=1;entryX=-0.013;entryY=0.758;entryDx=0;entryDy=0;entryPerimeter=0;" edge="1" parent="1" target="10">
          <mxGeometry relative="1" as="geometry">
            <mxPoint x="280" y="370" as="sourcePoint" />
            <Array as="points">
              <mxPoint x="280" y="426" />
            </Array>
          </mxGeometry>
        </mxCell>
        <mxCell id="-y_1eh64MCwN-i-FL7D--71" style="edgeStyle=orthogonalEdgeStyle;rounded=0;orthogonalLoop=1;jettySize=auto;html=1;entryX=0.5;entryY=1;entryDx=0;entryDy=0;" edge="1" parent="1" source="-y_1eh64MCwN-i-FL7D--50" target="38">
          <mxGeometry relative="1" as="geometry">
            <Array as="points">
              <mxPoint x="990" y="349" />
              <mxPoint x="990" y="690" />
              <mxPoint x="280" y="690" />
            </Array>
          </mxGeometry>
        </mxCell>
        <mxCell id="-y_1eh64MCwN-i-FL7D--73" style="edgeStyle=orthogonalEdgeStyle;rounded=0;orthogonalLoop=1;jettySize=auto;html=1;entryX=-0.031;entryY=0.298;entryDx=0;entryDy=0;entryPerimeter=0;" edge="1" parent="1" source="-y_1eh64MCwN-i-FL7D--61" target="-y_1eh64MCwN-i-FL7D--72">
          <mxGeometry relative="1" as="geometry">
            <mxPoint x="460" y="524" as="targetPoint" />
          </mxGeometry>
        </mxCell>
        <mxCell id="-y_1eh64MCwN-i-FL7D--87" value="Да" style="edgeLabel;html=1;align=center;verticalAlign=middle;resizable=0;points=[];" vertex="1" connectable="0" parent="-y_1eh64MCwN-i-FL7D--73">
          <mxGeometry x="-0.5835" y="1" relative="1" as="geometry">
            <mxPoint as="offset" />
          </mxGeometry>
        </mxCell>
        <mxCell id="-y_1eh64MCwN-i-FL7D--81" style="edgeStyle=orthogonalEdgeStyle;rounded=0;orthogonalLoop=1;jettySize=auto;html=1;entryX=-0.03;entryY=0.5;entryDx=0;entryDy=0;entryPerimeter=0;" edge="1" parent="1" target="-y_1eh64MCwN-i-FL7D--79">
          <mxGeometry relative="1" as="geometry">
            <mxPoint x="650" y="535" as="sourcePoint" />
          </mxGeometry>
        </mxCell>
        <mxCell id="-y_1eh64MCwN-i-FL7D--84" style="edgeStyle=orthogonalEdgeStyle;rounded=0;orthogonalLoop=1;jettySize=auto;html=1;entryX=1;entryY=0.5;entryDx=0;entryDy=0;exitX=0.492;exitY=0.978;exitDx=0;exitDy=0;exitPerimeter=0;" edge="1" parent="1" source="-y_1eh64MCwN-i-FL7D--80" target="38">
          <mxGeometry relative="1" as="geometry">
            <mxPoint x="580" y="630" as="targetPoint" />
            <Array as="points">
              <mxPoint x="865" y="655" />
            </Array>
          </mxGeometry>
        </mxCell>
        <mxCell id="-y_1eh64MCwN-i-FL7D--85" style="edgeStyle=orthogonalEdgeStyle;rounded=0;orthogonalLoop=1;jettySize=auto;html=1;entryX=0.991;entryY=0.693;entryDx=0;entryDy=0;entryPerimeter=0;" edge="1" parent="1" target="-y_1eh64MCwN-i-FL7D--58">
          <mxGeometry relative="1" as="geometry">
            <mxPoint x="575" y="440" as="sourcePoint" />
            <Array as="points">
              <mxPoint x="575" y="475" />
              <mxPoint x="427" y="475" />
            </Array>
          </mxGeometry>
        </mxCell>
      </root>
    </mxGraphModel>
  </diagram>
</mxfile>
